# xmcd
#
# Track frame offsets: 
#        150
#        17388
#        37989
#        59199
#        77312
#        92054
#        112297
#        127142
#        144776
#        167126
#        185814
#        209688
#        226451
#        248469
#        270992
#
# Disc length: 3791 seconds
#
# Revision: 0
# Processed by: cddbd v1.5.2PL0 Copyright (c) Steve Scherf et al.
# Submitted via: ExactAudioCopy v0.99pb3
#
DISCID=ce0ecd0f
DTITLE=V-Artists - 情歌集 07 Disk 2
DYEAR=2007
DGENRE=Pop
TTITLE0=愛回家_古巨基
TTITLE1=黑擇明_陳突迅
TTITLE2=逼得太緊_吳雨霏
TTITLE3=思前戀後_孫耀威
TTITLE4=山歌_側田-吳雨霏
TTITLE5=節外生技_謝安琪
TTITLE6=不要防曬_HotCha
TTITLE7=摩天輪_王菀之
TTITLE8=情歌_楊千嬅
TTITLE9=騷靈情歌_張敬軒
TTITLE10=認錯_RubberBand
TTITLE11=月球上的人_陳奕迅
TTITLE12=大細心_方力申
TTITLE13=哪吒\回家_黃家強
TTITLE14=黑夜不再來_蘇永康
EXTD=
EXTT0=
EXTT1=
EXTT2=
EXTT3=
EXTT4=
EXTT5=
EXTT6=
EXTT7=
EXTT8=
EXTT9=
EXTT10=
EXTT11=
EXTT12=
EXTT13=
EXTT14=
PLAYORDER=
